<mxfile host="65bd71144e" modified="2020-10-27T14:21:20.297Z" agent="5.0 (X11; Linux x86_64) AppleWebKit/537.36 (KHTML, like Gecko) Code/1.50.1 Chrome/83.0.4103.122 Electron/9.2.1 Safari/537.36" version="13.6.5" etag="bQ4DtE2_ajRuMR_pIIss">
    <diagram id="_6IYITs21xTEoahCs7K1" name="Page-1">
        <mxGraphModel dx="921" dy="364" grid="1" gridSize="10" guides="1" tooltips="1" connect="1" arrows="1" fold="1" page="1" pageScale="1" pageWidth="850" pageHeight="1100" math="0" shadow="0">
            <root>
                <mxCell id="0"/>
                <mxCell id="1" parent="0"/>
                <mxCell id="2" value="Envoy" style="rounded=0;whiteSpace=wrap;html=1;horizontal=1;verticalAlign=top;align=left;fillColor=#d80073;strokeColor=#A50040;fontColor=#ffffff;" vertex="1" parent="1">
                    <mxGeometry x="425" y="360" width="120" height="110" as="geometry"/>
                </mxCell>
                <mxCell id="3" value="Service" style="rounded=0;whiteSpace=wrap;html=1;fillColor=#60a917;strokeColor=#2D7600;fontColor=#ffffff;" vertex="1" parent="1">
                    <mxGeometry x="425" y="490" width="120" height="60" as="geometry"/>
                </mxCell>
                <mxCell id="13" style="edgeStyle=orthogonalEdgeStyle;rounded=0;orthogonalLoop=1;jettySize=auto;html=1;exitX=0;exitY=0.75;exitDx=0;exitDy=0;" edge="1" parent="1" source="4">
                    <mxGeometry relative="1" as="geometry">
                        <mxPoint x="530" y="420" as="targetPoint"/>
                    </mxGeometry>
                </mxCell>
                <mxCell id="4" value="Opa" style="rounded=0;whiteSpace=wrap;html=1;fillColor=#6a00ff;strokeColor=#3700CC;fontColor=#ffffff;" vertex="1" parent="1">
                    <mxGeometry x="635" y="380" width="120" height="60" as="geometry"/>
                </mxCell>
                <mxCell id="12" style="edgeStyle=orthogonalEdgeStyle;rounded=0;orthogonalLoop=1;jettySize=auto;html=1;exitX=1;exitY=0.5;exitDx=0;exitDy=0;entryX=0;entryY=0.5;entryDx=0;entryDy=0;" edge="1" parent="1" source="5" target="4">
                    <mxGeometry relative="1" as="geometry"/>
                </mxCell>
                <mxCell id="14" style="edgeStyle=orthogonalEdgeStyle;rounded=0;orthogonalLoop=1;jettySize=auto;html=1;exitX=0.5;exitY=1;exitDx=0;exitDy=0;entryX=0.5;entryY=0;entryDx=0;entryDy=0;" edge="1" parent="1" source="5" target="6">
                    <mxGeometry relative="1" as="geometry"/>
                </mxCell>
                <mxCell id="5" value="ext_authz" style="rounded=0;whiteSpace=wrap;html=1;align=left;" vertex="1" parent="1">
                    <mxGeometry x="435" y="400" width="100" height="20" as="geometry"/>
                </mxCell>
                <mxCell id="15" style="edgeStyle=orthogonalEdgeStyle;rounded=0;orthogonalLoop=1;jettySize=auto;html=1;exitX=0.5;exitY=1;exitDx=0;exitDy=0;entryX=0.5;entryY=0;entryDx=0;entryDy=0;" edge="1" parent="1" source="6" target="3">
                    <mxGeometry relative="1" as="geometry"/>
                </mxCell>
                <mxCell id="6" value="router" style="rounded=0;whiteSpace=wrap;html=1;align=left;" vertex="1" parent="1">
                    <mxGeometry x="435" y="440" width="100" height="20" as="geometry"/>
                </mxCell>
                <mxCell id="9" value="" style="shape=image;verticalLabelPosition=bottom;labelBackgroundColor=#ffffff;verticalAlign=top;aspect=fixed;imageAspect=0;image=data:image/png,iVBORw0KGgoAAAANSUhEUgAAAEMAAAA6CAYAAADr5+R6AAAJ/UlEQVRoBe1baVBTWRbOLP+mpmbrmfkzNf1zqqZmav6MK8MuIgjSohH3tlEIa0iABAhrA6IgCqKCIgpiSAgJCZAAsssmoCFhx210QFwZQIIK2MKZOq/62VGUIu89tppOVeo94N7vnvPdc8+995wDi7UEn8fDU38pvTnATZTpZZyU6z0uEeoRe4HqtRVP/tbMVzazliOBdV6S2X/5yd7Z8BWTW4QqAzum7FFgRlN9ZmnPybb+Z04A8IslEJX5IQDgl+q2wUBeepPWLlg1vcYzD6x4CnAUaYAdXwUHT9aDR9oN8DrXCr4XbkJAVjvxxXev9FbibweT64m2jiI10XctJ292W1jJ84Q8rbjn/qgZAPyEeckZQkThWnqf7/M4WXfPzDd/1ty/AFyiyuGblEbgX9ZBYLae1pd3SUdgIaY5t2DWklswGZtzU/pkbPJLhlSgD4Pmm1NxN8UlQmNY7y0lCOCca6Wl+EKI45xrIcba6CN9dzipSt/W/8SevjYUEQDgp8qmgSh7YdE0WsHuYzWEqS9EESbb4BLDsS24Be/2xJb23382+jeKKlHr1vtwZMu+hMpnG33yCUGYWAZ0CUIZkBRzP9nbyKxmhcFg+IKadgvsBQA/P6Xskm/wlsK2yDLgXtQu+nIwlSSUCWWz8Je9ael66rBA1UxrNjo5+Wf35NpBM18ZHD7dvOJI+Jg0lNGSWzB1WqE/BQA/M03beVp3PhzZgr7BTlAE/pm3VjwRJDEoq0NI8dShY9e04+Pw23lUXNifOh+MOlvzFTO4pZGDrKYn+hLXmGvT7Cj1XVp+RPdgeJslTzHj+m3FqiTCeNLYcZXTOyLV9yYmJn6/MDMwatX/aMzKMkA+syN29RNBksKOq3zrGqG+PzoKvzJSdf5XgwG+cApXv3aJKlv1FkESQT53xVYY+GfqNQs6zmMjn7SG2zaBSkaO0aQQK+WJPmRraPFo7rU+4fwmwWKxsspvn8fDFF6aVooCTMuBulkHFBja77ww/ywhY5OTX6KfwBsjHQG+TqwAG14+WHLzYe+xGlpYpBz8S+3gGlUElv5SsAtSgOfZFlq47ikNUzsii+/gQfKThAgvtrThWYIUgMrz6xOVsMZTDI7BebBNmAdmPhLiKk4Fy7iPU6gcNnqLCUzEXsfJA7ysGbcx9X1nVNljWd0d3zlk3B4as8blQevGeVkHFn4S2BqcB/uiJcTXLYII3IDfBeqHNc+0BoJgxCJxnYT5sClYRYsMr/TWmU1Biv+OjcGvPyDEN62+1ym8lBY4J60B1nLEsPd7IkjB7YMVsOtoNWVsl3AV2Ab8QDDi4hjrvSTge56ebztwrPLhheLOmPdkvHoFfzTzk83SsopsPbjFl4GV/4dCo+DbwwvBIUxNmQxbvgychXNxNwUpgK5/80lvfesYohzCkARBSLqmNwu3UlPX3Mftd8So58wgksGOUtIyaXSa20PnkuEQooI9DDho10j1QFPXI0eCjK8iS1/uPV5Lmwy3uHKw5s4Veme0CuxDiinj2/BkhOMklx35tBeoYF9SHWVccjK9zzQOhWQ0KFgTE/CHdV4SRmITh083gZnPXDJcIkpge8w1ykI7i4pgS+BHuDFSsAyQg8eZG5RxSTK4mdpZc7/8V6zStkG+ZYCCNiAC4+kOndpO0Q9e/0BsAZj50YuBuKc2wgbvj8iILwHc/XBMUik6TxdR8QArMqe1yjmC3i5iLMTuhGrY6COB3ZESQCK2hhXT8hcktm2gAuz4UmJrPRCvAoy77mFgaZP4nJQ6PWt33LXHexPprzsSFJ945cdcCX5tg1SMBIQwUGMbpIR/eoiJL9NhhaDMlk6WY2ixwT21iRFTMyaEm6UFH5pnAGM88h0xEZv8malnaLa2n2XNV0xjZosp0NWKI8zRDbI2+ubP+q2iuOZikR10ud3AWuMhXpbkz2IpRRU3JLdjnIWZ7x8tQw+ReZ0PWbaBhW9+9Bl6iJZ0dLOcRSUji7GbUDXX5er3rVjfyvrmeFXvPobPGculEJ1x4/K0pazUwo7zTJ5A6Qi0nH0F6Y3lLP29YcyP/F+fM4Ky9bPsKHU/C5Oy670lM/4rMKO+VJaSIO/pIW6tGNBwT6zoZCKesVTCMz1OolQvI+IZSEaNbnCPTWDhLNODrAY8wZWO6f1Hy7XvI10Y/7MMkL82NfTullAD7LiqFeNvMC9s6s6YWtRb7ihUDr6PgaJ1nJBqM53CNSYphpkpLGncGq4BrMZbLkvAsTHgbBNYCKacpoNy9DOC840lH0THkQzMHWDpj6kRciww2xJaAlb8QvDOaFtyQrBu1BJrTMPUJk9ImqavaHOQ/NmcvAkSklvRF75ZWPSOygy7JVTDBp98WEpHvDuhBjb4SCmNGXq18xUnubr+kxk1JAPzjk4hqudUcxGcsy1gzS8kIlKm+h9TJsDzzA1iHExvUL1XnVZ1X2VHaXo/m2tFQnR3X1hY+Mum6GThMZeBBbJoulSF/RQ5SDYuScIaaFwhUov7a+2DC5/Om4VHMvBzUd0ds1mgmqITeUZfgjsNlknaBatgf9J1SnETxMEdAuOfiIVpSt6ldsq+KVbW8/Dg0fJbV8r7BN+rO/+DKFhJqbn+VXT5d5+aIVN+h57+QHI9YHYf8zOYLN4RW0kU06PV+GdqiXA/tsN3dOC4THGbRAKwz2ZhEYFBd8dCPyG61CwPPlevXFDlDkkT1j25hhc/2BVfOW2K8vO1xVk+dKqBSChhhs2CKyeWE0a8MZKOS8ucW0Bk3zDpdOhUIy0rMJYlTNxpiBe35brFaLpMqukiCcHKOKyQY8dVThkDr7Z3kbhrPO7qzat740r1tMofsTM7Wn2HHVvxio4PWS4Co6TdT6MutxbsjytrNxgMvyMnmvITq2uPJFU2OYtKRldThfDJot4mlJuTXFX78iX8hjIBH3fEq/55VUecLV8xfuR084q+1OExO13dl+sgKHycUdwVy2jtuDExrd1PNtvw5GP4Lxbo/ZfL/D83bpKq7xb+i4VdoPwFymos+6K8ox85Jr55zoYnHz+UfP3lSvAlMdLuJyfk+iub+PJhlI2RwnlT2Bt4OvFXjxNVDfbBhcNHUhue4tb5uRlbrN8flff0J0rb811ERQ84yVV1KJMpOjDeVndv2DLkfIPciltgOHyi5r5PRtuibsXC3M7JJGVPtSirWWXDKxjBsVEGxhWjAzgy8uZPZwv1CY4C5ZCDQPnM82Rtt39GyzDdkyNaVUx+91CivEsTmtmscQ5V/QcDMulK/VEck47MS9L3ztDYPy6X9oa5H69oXu8l+c41ouSBZ3K1jpfRpBVeausWXdHeDsnRPhJk60YDszsmw3I7RiLE+oHoPH1vjFjXHp+nq47Mbiv1T6ur3RWt6dvgLZk+nFjRhJj/fjT698VQ4n/oXnRXlOARcAAAAABJRU5ErkJggg==;" vertex="1" parent="1">
                    <mxGeometry x="310" y="270" width="67" height="58" as="geometry"/>
                </mxCell>
                <mxCell id="11" style="edgeStyle=orthogonalEdgeStyle;rounded=0;orthogonalLoop=1;jettySize=auto;html=1;exitX=0.5;exitY=1;exitDx=0;exitDy=0;entryX=0.75;entryY=0;entryDx=0;entryDy=0;" edge="1" parent="1" source="10" target="5">
                    <mxGeometry relative="1" as="geometry"/>
                </mxCell>
                <mxCell id="10" value="" style="shape=image;verticalLabelPosition=bottom;labelBackgroundColor=#ffffff;verticalAlign=top;aspect=fixed;imageAspect=0;image=data:image/png,iVBORw0KGgoAAAANSUhEUgAAAKMAAAAmCAIAAAAnc7y8AAAGlUlEQVR4Ae1b+1NTRxT+8iAIEQgECCCP8BAKhAABRA0vxQgCwRiRCgolZSKP8PKi04dK1cr4GGupCKIU07GO0zpTazudqTN1qqMWh9aaf6m9Lu5sL0KumZBquMz94dxzz+539nx7ds/uBJQ6b0nPWogASp23OLdHeoI+AhLTa2WWS0xLTEtLenBFQMppKaeDa0YHfcHldYBSTks5LeV0cEVAymkpp4NrRnvdxoLeINhz+saLsIjoLNO2t43Iotr3AbQcnQmYY35muu34TUOVLSZRr1qnVihVETEJyTmmmvajrqnH7JDs3BRW/MssriH2ZQ2OFQ35j42959jOWbl97BaAHZ3HWOXbIL/DTA/PLhgqbQBkMnliRoGh0masacksrlaFqQFEahMPfHabhpgwrYlPKanveO1T132KGO85PMkaxKflAkgzbGGVHae+oz0LhK17+gF0X/hFoP/fX99hpvMrdgOIS83pGr/LxnF4dqGsoQtARLTONf2EfCJM08Rl7VeWTZZ2ABbH2Mpm9GtSVmG0LpW+vj3Cu8p02/GbANSa2P7JR6+NZrnVWW51Oi/+Sr4GhmnX1GOZXF5Uu5+AGqr4Jafj9Pdmu0sTn6JQqsLWa/LMTT0TD1ifB64+Lbc6YxL1CqUqJDRMp8+taTtyeO5v1qZv8mHJzoOkk5DQcJ0+t7ptlLXxirWUaTG4rA9vKvtnnzbWtACo3DcsEj4wTDf1XwBgG7lMvCrc3gogOceUbjTvOXxl30ezpp0HAGiTMoZn/yQ2gzPzcSnZcoXSWNNS132ytuOTNMMWABtLaunQ+q880sQny2RyQ6Wt3nmmum00McsIILt0B7XxiiVgWgwu7dw3wT9Mx6Vk8+my/H4pcC4wTBsqbQplyODMPEEnwdUmZYzMPaf+kNqi3nmGaMqbugE09Z2nBpzbk11mAWDnpoiy2NIGoKJliNqMfP1Xco4JwN7RaaL0iiVgWgwuhfNN8A/T6igtgOWW7qWeEaZXKKoFtTrt4Y326YhoXWruJtqWBNe8d4BqOLdn99AEgPyKZqKMjE1SrVP3fPlbz8QD+jT2nQNQuL2V2Kg1sTK5fGD6KdvPrkNnWBuvWAKmxeCycD7I/mE6QpsAoO/y76wHZPAsnUkbi4gBYXqF2nvo+gLbFZXFM935+R3BhkKCax24SHvj3J6O07xZynulnNszOPMH661ATjeaObfHNfUYQFTcBrYTzu05ePI2gNS8xYnlFYtlWgyuAM6HV/8wTTaqtuM3WQ/I2dpQZTNU2fIrmgEImF7V2ruqdYTUX9QlElz76OIiTPSOs/cAJGYUcG5Pz8QDvq6M0tq5qaVP+xj/Myznpfv81r4hk3b7qp8f+X4y+X44t8crFsu0GFwBnA+v/mF6UyN/v1HW4FjOg6HrCwFmOjV3kzpKy/pDgts88AWrXMzFl4v80LVnAEJCw1gDgeyafgIgPDJGoD/wGZ/Tafmbid4rFsu0GFwBnA+v/mHacfaeTC5XrVM7zv30WicCzPTgzLxCGZJntrLOkOCa7S5W2djL78EF1XaijIpLfrkS3GFtBmfmh649o5qIaB1kst6v/nM2q+s+BcBkaSdmXrFYpjm3RwwudcA3wT9Mc26Pee8AuR5p/XhO4MoH4z9kFlcDyCiqJp9Wu/a2DfN1VkPvWdYTEtzohLSBq6+KqRsv9AVbAVhdi5t3udUJIKe8jm1o3NaiVIW2n/iWKEvqOwCUW53UZmTueWJGAYD9x74hSq9YAqbF4FI43wS/Mc3deGG298vlCv6mLGWjocpmsrTnbW2M3ZDFX5HK+dMnPfAQpqPikk2W9uUeeqHGDkxkRcYfZ2WyvsmHbFsS3LT8zdqkjKrWEUvXiXRjBQCdPpdeepBzLYB0o9niGKvt/JRMBTpH+aJs+kl0gl4mkxdU23cdGt/ReSwpq5AtvOk+vQKWgGkxuOxYfJD9x/TLSqRr/G5ZgyMuNSdsvUauUIZHapOyCjc3Oz88/zPrnNdTFgDnpftsEyKLZFoTn6zT5wma0+DWtB0hV2Bh6zX5FbsFE4K9q1KFqePT+Psv9gjOuT39Vx6V1Hdo4pMVypCQ0PDELGNd90kWzisWNaCtxOBSYx8EPzPtgwcBa7I0uKsHHUgskaOQmF6V35xITK9KWEVO6kBGP5BYIocv5fSqTD6J6VUJq8hJvcbN1lBOS0xL/1W7JlYaKafXBM2c2yMxLTEt/bI/uCIg5bSU08E1o9d44f3vPv0PfsgwG9Y0eyQAAAAASUVORK5CYII=;" vertex="1" parent="1">
                    <mxGeometry x="410" y="280" width="163" height="38" as="geometry"/>
                </mxCell>
            </root>
        </mxGraphModel>
    </diagram>
</mxfile>